<?xml version="1.0" encoding="UTF-8"?>
<svg width="82px" height="60px" viewBox="0 0 82 60" version="1.1" xmlns="http://www.w3.org/2000/svg"
     xmlns:xlink="http://www.w3.org/1999/xlink">
    <!-- Generator: Sketch 51.1 (57501) - http://www.bohemiancoding.com/sketch -->
    <title>Group 3</title>
    <desc>Created with Sketch.</desc>
    <defs></defs>
    <g id="Page-1" stroke="none" stroke-width="1" fill="none" fill-rule="evenodd">
        <g id="商品" transform="translate(-1634.000000, -559.000000)" fill-rule="nonzero">
            <g id="Group-4" transform="translate(1634.000000, 559.000000)">
                <g id="Group-3">
                    <circle id="Oval" stroke="#299EF3" stroke-width="2" cx="19.5" cy="18.5" r="6.5"></circle>
                    <polygon id="Path-9" fill="#DBEEFD"
                             points="2 42 2 46 2 59 81 59 81 36 77 33 73 29 67 25 65 24 62 24 59 25 57 26 54 29 51 33 49 36 45 41 41 43 38 44 34 43 28 40 23 37 18 34 15 34 12 34 8 37 4 40"></polygon>
                    <rect id="Rectangle-19" stroke="#299EF3" stroke-width="2" x="1" y="1" width="80" height="58"
                          rx="3"></rect>
                    <path d="M1.78086881,44.424695 L0.219131191,43.175305 C5.72482615,36.2931863 10.6152869,32.8 15,32.8 C17.5507849,32.8 19.0329047,33.5811172 26.2442997,38.0630997 C28.0686191,39.1969397 29.3497683,39.9545919 30.6251103,40.6315714 C34.4383701,42.6557333 37.3634771,43.4283543 39.7574644,42.8298575 C43.1072186,41.992419 45.4126261,39.6112041 49.9193376,33.2659434 C50.1030039,33.0073006 50.1030039,33.0073006 50.2869118,32.7484173 C53.8957684,27.6702406 55.8073994,25.4725921 58.5038611,23.9317569 C63.7446668,20.9370107 71.4283209,25.1280948 81.7295372,36.1160589 L80.2704628,37.4839411 C70.5716791,27.1385719 63.5886665,23.3296559 59.4961389,25.6682431 C57.1472193,27.0104829 55.3495817,29.0770824 51.9171698,33.9069763 C51.7337308,34.1651994 51.7337308,34.1651994 51.5499124,34.4240566 C46.7477025,41.1853665 44.2460697,43.769259 40.2425356,44.7701425 C37.249039,45.5185167 33.8987202,44.6335826 29.6873897,42.3981161 C28.3630232,41.6951133 27.048343,40.9176313 25.1885633,39.7617524 C18.5075595,35.6094153 16.9717458,34.8 15,34.8 C11.3847131,34.8 6.94184052,37.9734804 1.78086881,44.424695 Z"
                          id="Path-8" fill="#299EF3"></path>
                </g>
            </g>
        </g>
    </g>
</svg>