<?xml version="1.0" encoding="UTF-8"?>
<svg width="18px" height="18px" viewBox="0 0 18 18" version="1.1" xmlns="http://www.w3.org/2000/svg"
     xmlns:xlink="http://www.w3.org/1999/xlink">
    <!-- Generator: Sketch 51.1 (57501) - http://www.bohemiancoding.com/sketch -->
    <title>icon扶뒬못</title>
    <desc>Created with Sketch.</desc>
    <defs></defs>
    <g id="Symbols" stroke="none" stroke-width="1" fill="none" fill-rule="evenodd">
        <g id="icon/home" fill="#353535" fill-rule="nonzero">
            <g id="Group">
                <g id="icon扶뒬못" transform="translate(1.000000, 1.000000)">
                    <path d="M0.5,8 C0.5,7.72385763 0.723857625,7.5 1,7.5 C1.27614237,7.5 1.5,7.72385763 1.5,8 L1.5,15 C1.5,15.2761424 1.72385763,15.5 2,15.5 L5,15.5 C5.27614237,15.5 5.5,15.2761424 5.5,15 L5.5,13 C5.5,11.6192881 6.61928813,10.5 8,10.5 C9.38071187,10.5 10.5,11.6192881 10.5,13 L10.5,15 C10.5,15.2761424 10.7238576,15.5 11,15.5 L14,15.5 C14.2761424,15.5 14.5,15.2761424 14.5,15 L14.5,8 C14.5,7.72385763 14.7238576,7.5 15,7.5 C15.2761424,7.5 15.5,7.72385763 15.5,8 L15.5,15 C15.5,15.8284271 14.8284271,16.5 14,16.5 L11,16.5 C10.1715729,16.5 9.5,15.8284271 9.5,15 L9.5,13 C9.5,12.1715729 8.82842712,11.5 8,11.5 C7.17157288,11.5 6.5,12.1715729 6.5,13 L6.5,15 C6.5,15.8284271 5.82842712,16.5 5,16.5 L2,16.5 C1.17157288,16.5 0.5,15.8284271 0.5,15 L0.5,8 Z"
                          id="Path-2"></path>
                    <path d="M8,0.625 L0.3,6.4 C0.0790861001,6.56568542 -0.234314575,6.5209139 -0.4,6.3 C-0.565685425,6.0790861 -0.5209139,5.76568542 -0.3,5.6 L7.7,-0.4 C7.87777778,-0.533333333 8.12222222,-0.533333333 8.3,-0.4 L16.3,5.6 C16.5209139,5.76568542 16.5656854,6.0790861 16.4,6.3 C16.2343146,6.5209139 15.9209139,6.56568542 15.7,6.4 L8,0.625 Z"
                          id="Path-3"></path>
                </g>
            </g>
        </g>
    </g>
</svg>