<?xml version="1.0" standalone="no"?><!DOCTYPE svg PUBLIC "-//W3C//DTD SVG 1.1//EN"
        "http://www.w3.org/Graphics/SVG/1.1/DTD/svg11.dtd">
<svg class="icon" width="16px" height="16.00px" viewBox="0 0 1024 1024" version="1.1"
     xmlns="http://www.w3.org/2000/svg">
    <path fill="#666666"
          d="M620.965647 0H393.336471c-27.949176 0-50.236235 24.515765-50.236236 54.814118 0 30.298353 22.347294 54.874353 50.236236 54.874353h228.954353c26.503529 0 48.850824-24.576 48.850823-54.874353 0-30.298353-22.287059-54.814118-50.236235-54.814118z m247.085177 36.562824H754.748235c1.144471 6.023529 1.807059 12.047059 1.807059 18.251294 0 46.08-33.912471 91.497412-74.209882 91.497411h-348.16c-42.465882 0-76.378353-45.417412-76.378353-91.557647 0-6.144 0.662588-12.167529 1.807059-18.191058H145.046588C52.766118 36.562824 30.117647 88.124235 30.117647 162.514824v736.858352C30.117647 979.305412 62.524235 1024 151.913412 1024h709.150117C950.512941 1024 993.882353 988.943059 993.882353 899.433412V162.514824c0-74.390588-40.658824-125.891765-125.891765-125.891765z m-116.434824 727.521882H258.831059c-18.191059 0-36.321882-21.985882-36.321883-39.936 0-17.889882 15.36-33.189647 33.551059-33.189647h491.339294c18.191059 0 33.551059 13.914353 34.936471 33.189647 0 17.950118-12.589176 39.936-30.72 39.936z m1.987765-195.102118h-492.724706c-18.191059 0-29.756235-19.275294-29.756235-37.225412s15.299765-35.900235 33.490823-35.900235h491.399529c18.130824 0 33.490824 16.624941 34.876236 35.900235 0 17.950118-19.154824 37.225412-37.285647 37.225412z m0-200.342588h-492.724706c-18.191059 0-29.756235-19.275294-29.756235-37.285647 0-17.950118 15.299765-35.900235 33.490823-35.900235h491.399529c18.130824 0 33.490824 16.685176 34.876236 35.900235 0 18.010353-19.154824 37.285647-37.285647 37.285647z"/>
</svg>