<?xml version="1.0" standalone="no"?><!DOCTYPE svg PUBLIC "-//W3C//DTD SVG 1.1//EN"
        "http://www.w3.org/Graphics/SVG/1.1/DTD/svg11.dtd">
<svg class="icon" width="16px" height="16.00px" viewBox="0 0 1024 1024" version="1.1"
     xmlns="http://www.w3.org/2000/svg">
    <path fill="#666666"
          d="M779.252 885.75c19.232 0 34.807 16.343 34.807 36.525 0 20.15-15.574 36.492-34.807 36.492H163.834c-19.204 0-34.778-16.34-34.778-36.492 0-20.181 15.575-36.525 34.778-36.525h615.418z m-617.04-49.275l83.597-234.31 136.252 143.001-219.85 91.309z m247.785-118.239L272.593 574.062l373.535-388.885 137.4 144.177-373.531 388.882z m399.166-418.842L671.761 155.219 740.49 83.13c22.774-23.864 59.646-23.864 82.42 0l54.953 57.664c22.773 23.896 22.773 62.647 0 86.543l-68.7 72.057z"/>
</svg>