<?xml version="1.0" standalone="no"?><!DOCTYPE svg PUBLIC "-//W3C//DTD SVG 1.1//EN"
        "http://www.w3.org/Graphics/SVG/1.1/DTD/svg11.dtd">
<svg class="icon" width="30px" height="30.00px" viewBox="0 0 1024 1024" version="1.1"
     xmlns="http://www.w3.org/2000/svg">
    <path fill="#3ABBDB"
          d="M916.469046 603.551533c0.2415-1.555424 0.367367-3.149733 0.367366-4.772696l-0.082888-427.84594c1.342576-10.329242 2.91028-38.844664-15.863276-61.646974-9.988482-12.131283-29.215363-26.592632-64.089604-26.592632-60.059827 0-208.682624-0.017396-208.682624-0.017396l-0.008187 61.398311s148.627914 0.017396 208.690811 0.017396c8.202814 0 14.419393 1.551331 16.630756 4.149502 2.806926 3.300159 2.981911 11.049649 2.450816 14.713082-0.471744 2.126428-0.528025 3.472074-0.528025 5.70288l0.079817 412.698977a31.081871 31.081871 0 0 0-0.35918 4.701064l-0.083911 279.334684c-0.001023 2.232852 0.056282 3.580545 0.527002 5.707996 0.532119 3.665479 0.358157 11.412923-2.449792 14.713082-2.211362 2.598172-8.426918 4.150526-16.630756 4.150526-46.824398 0-209.627135 0.010233-279.115696 0.016373-102.034782-0.00614-338.667964-0.016373-385.49134-0.016373-8.202814 0-14.419393-1.552354-16.629732-4.151549-2.807949-3.300159-2.983958-11.050673-2.451839-14.714105 0.47072-2.127451 0.527002-3.474121 0.527002-5.70595l-0.081865-274.320488 0.081865-422.413214c0-2.231829-0.056282-3.577475-0.527002-5.703903-0.531095-3.664456-0.35611-11.412923 2.450815-14.712058 2.211362-2.599195 8.427941-4.150526 16.630756-4.150526 60.061874 0 187.673146-0.017396 187.673146-0.017396l-0.008186-61.398311s-127.606155 0.017396-187.66496 0.017396c-34.87424 0-54.101121 14.461349-64.08858 26.592632-18.773557 22.802309-17.205853 51.318755-15.8643 61.647997l-0.079818 414.735355-0.002046 0.399089v12.717636c0 0.165775 0.001023 0.330528 0.004093 0.49528l0.078795 263.84082c-1.342576 10.331289-2.908233 38.845688 15.866346 61.647997 9.988482 12.13026 29.215363 26.591608 64.087557 26.591608 42.39144 0 240.359036 0.008186 353.173315 0.014327 0.161682 0.002047 0.321318 0.004093 0.485047 0.004093h78.771986c0.195451 0 0.391926-0.002047 0.58533-0.00614 78.914225-0.00614 193.544871-0.01228 231.591358-0.01228 34.875264 0 54.101121-14.462372 64.089603-26.593655 18.772533-22.800263 17.20483-51.314661 15.863277-61.64595l0.076748-259.570567zM318.618346 336.313339c0-27.51156-22.301913-49.812449-49.812449-49.812449-27.510536 0-49.812449 22.30089-49.81245 49.812449 0 19.848027 11.611444 36.981226 28.410022 44.987566 9.106393 53.122842 34.310399 102.050132 73.201112 140.940845 49.663047 49.662023 115.694883 77.012924 185.929434 77.012924 70.233527 0 136.265364-27.350901 185.927388-77.013947 39.589631-39.589631 64.981925-89.586275 73.660576-143.817356 13.948673-8.828054 23.216748-24.382292 23.216748-42.110032 0-27.51156-22.301913-49.813473-49.813473-49.813472s-49.813473 22.301913-49.813472 49.813472c0 14.048957 5.82363 26.730778 15.179709 35.786006-16.934677 94.119517-99.437634 165.755996-198.358499 165.755995-100.44252 0-183.952408-73.857051-199.090162-170.112206 6.984058-8.573251 11.175516-19.510336 11.175516-31.429795z"/>
</svg>