<?xml version="1.0" standalone="no"?><!DOCTYPE svg PUBLIC "-//W3C//DTD SVG 1.1//EN"
        "http://www.w3.org/Graphics/SVG/1.1/DTD/svg11.dtd">
<svg class="icon" width="30px" height="30.00px" viewBox="0 0 1024 1024" version="1.1"
     xmlns="http://www.w3.org/2000/svg">
    <path fill="#3ABBDB"
          d="M474.56 370.368a220.992 220.992 0 0 0-107.776 111.68 28.096 28.096 0 0 0 51.456 22.272 165.12 165.12 0 0 1 80.448-83.456 27.904 27.904 0 1 0-24.128-50.56z m287.36 171.2a27.968 27.968 0 0 0-28.032 28.032 164.8 164.8 0 0 1-164.544 164.544 27.968 27.968 0 1 0 0 56c58.88 0 114.24-22.912 155.904-64.576a219.072 219.072 0 0 0 64.576-155.904 27.84 27.84 0 0 0-27.968-28.096z m189.824 369.728l-127.04-127.04a333.952 333.952 0 0 0 79.104-216.32 333.952 333.952 0 0 0-98.432-237.44 333.952 333.952 0 0 0-237.44-98.432 333.952 333.952 0 0 0-237.44 98.368 333.952 333.952 0 0 0-98.432 237.44 333.952 333.952 0 0 0 98.432 237.44 333.952 333.952 0 0 0 237.44 98.432 333.952 333.952 0 0 0 217.216-79.744l127.04 127.04a27.968 27.968 0 1 0 39.552-39.68z m-383.808-63.552A280.192 280.192 0 0 1 288 567.808 280.192 280.192 0 0 1 567.936 288a280.192 280.192 0 0 1 279.872 279.872 280.256 280.256 0 0 1-279.872 279.936z m-224.768 56.192H186.56a66.56 66.56 0 0 1-66.56-66.496V186.56c0-36.672 29.888-66.56 66.56-66.56h594.944c36.672 0 66.496 29.888 66.496 66.56v81.088a27.968 27.968 0 1 0 56 0V186.496a122.624 122.624 0 0 0-122.496-122.432H186.56A122.624 122.624 0 0 0 64 186.496v651.008c0 67.52 54.912 122.432 122.496 122.432h156.608a27.968 27.968 0 1 0 0-56z"/>
</svg>