<?xml version="1.0" standalone="no"?><!DOCTYPE svg PUBLIC "-//W3C//DTD SVG 1.1//EN"
        "http://www.w3.org/Graphics/SVG/1.1/DTD/svg11.dtd">
<svg class="icon" width="30px" height="30.00px" viewBox="0 0 1024 1024" version="1.1"
     xmlns="http://www.w3.org/2000/svg">
    <path fill="#3ABBDB"
          d="M896.904727 627.846465c-33.357576-48.09697-78.351515-84.29899-130.715152-105.115152 23.143434-16.290909 42.537374-37.882828 56.50101-63.224242 16.290909-29.220202 24.824242-62.707071 24.824242-96.581818 0-105.890909-81.971717-192.129293-182.820202-192.129293-14.351515 0-25.987879 11.636364-25.987879 25.987879 0 14.351515 11.636364 25.987879 25.987879 25.987879 72.145455 0 130.844444 62.836364 130.844444 140.153535 0 77.317172-58.69899 140.153535-130.844444 140.153535-14.351515 0-25.987879 11.636364-25.987879 25.987879l0 0.129293c0 14.351515 11.636364 25.987879 25.987879 25.987879 129.810101 0 235.313131 112.614141 235.313131 250.957576 0 14.351515 11.636364 25.987879 25.987879 25.987879 14.351515 0 25.987879-11.636364 25.987879-25.987879C952.112808 741.624242 932.977455 679.951515 896.904727 627.846465L896.904727 627.846465zM628.492606 583.757576c-27.280808-19.264646-56.888889-34.521212-88.307071-45.381818 66.19798-40.210101 106.925253-111.838384 106.925253-189.672727 0-122.440404-99.555556-221.99596-221.99596-221.99596-122.440404 0-221.99596 99.555556-221.99596 221.99596 0 41.632323 11.636364 82.359596 33.745455 117.527273 18.618182 29.737374 44.088889 54.690909 74.084848 72.791919-31.935354 10.860606-62.060606 26.246465-89.729293 45.89899-30.125253 21.333333-56.630303 47.191919-78.868687 76.670707C96.322909 722.876768 72.015838 796.056566 72.015838 872.856566c0 14.351515 11.636364 25.987879 25.987879 25.987879 14.351515 0 25.987879-11.636364 25.987879-25.987879 0-80.161616 31.288889-155.539394 87.919192-212.557576 56.630303-56.759596 131.490909-88.177778 210.876768-88.177778 2.585859 0.258586 5.30101 0 7.886869-0.517172l2.068687-0.517172c77.317172 1.551515 149.979798 32.711111 205.187879 88.177778 56.759596 56.888889 87.919192 132.39596 87.919192 212.557576 0 14.351515 11.636364 25.987879 25.987879 25.987879 14.351515 0 25.987879-11.636364 25.987879-25.987879 0-76.8-24.307071-149.850505-70.464646-211.264646C685.252202 630.949495 658.617859 605.090909 628.492606 583.757576L628.492606 583.757576zM425.244121 178.682828c93.737374 0 170.020202 76.282828 170.020202 170.020202 0 93.737374-76.282828 170.020202-170.020202 170.020202-93.737374 0-170.020202-76.282828-170.020202-170.020202C255.223919 254.965657 331.506747 178.682828 425.244121 178.682828L425.244121 178.682828z"/>
</svg>