<?xml version="1.0" standalone="no"?><!DOCTYPE svg PUBLIC "-//W3C//DTD SVG 1.1//EN"
        "http://www.w3.org/Graphics/SVG/1.1/DTD/svg11.dtd">
<svg class="icon" width="30px" height="30.00px" viewBox="0 0 1024 1024" version="1.1"
     xmlns="http://www.w3.org/2000/svg">
    <path fill="#3ABBDB"
          d="M798.72 81.92H682.666667c-6.826667-20.48-27.306667-37.546667-51.2-37.546667h-238.933334c-23.893333 0-44.373333 13.653333-51.2 37.546667H225.28C177.493333 81.92 136.533333 122.88 136.533333 170.666667v720.213333c0 47.786667 37.546667 88.746667 88.746667 88.746667h573.44c47.786667 0 88.746667-37.546667 88.746667-88.746667V170.666667c0-47.786667-40.96-88.746667-88.746667-88.746667z m37.546667 808.96c0 20.48-17.066667 37.546667-37.546667 37.546667H225.28c-20.48 0-37.546667-17.066667-37.546667-37.546667V170.666667c0-20.48 17.066667-37.546667 37.546667-37.546667H341.333333c6.826667 20.48 27.306667 34.133333 51.2 34.133333h238.933334c23.893333 0 44.373333-13.653333 51.2-34.133333h116.053333c20.48 0 37.546667 17.066667 37.546667 37.546667v720.213333zM699.733333 604.16h-375.466666c-13.653333 0-23.893333 10.24-23.893334 23.893333s10.24 23.893333 23.893334 23.893334h375.466666c13.653333 0 23.893333-10.24 23.893334-23.893334s-10.24-23.893333-23.893334-23.893333zM699.733333 737.28h-375.466666c-13.653333 0-23.893333 10.24-23.893334 23.893333s10.24 23.893333 23.893334 23.893334h375.466666c13.653333 0 23.893333-10.24 23.893334-23.893334s-10.24-23.893333-23.893334-23.893333zM382.293333 525.653333c3.413333 3.413333 10.24 6.826667 17.066667 6.826667s13.653333-3.413333 17.066667-6.826667l92.16-92.16 92.16 92.16c3.413333 3.413333 10.24 6.826667 17.066666 6.826667s13.653333-3.413333 17.066667-6.826667c10.24-10.24 10.24-23.893333 0-34.133333L546.133333 395.946667l92.16-92.16c10.24-10.24 10.24-23.893333 0-34.133334-10.24-10.24-23.893333-10.24-34.133333 0L512 361.813333l-92.16-92.16c-10.24-10.24-23.893333-10.24-34.133333 0-10.24 10.24-10.24 23.893333 0 34.133334l92.16 92.16-92.16 92.16c-10.24 10.24-10.24 27.306667-3.413334 37.546666z"/>
</svg>