<?xml version="1.0" standalone="no"?><!DOCTYPE svg PUBLIC "-//W3C//DTD SVG 1.1//EN"
        "http://www.w3.org/Graphics/SVG/1.1/DTD/svg11.dtd">
<svg class="icon" width="30px" height="30.00px" viewBox="0 0 1024 1024" version="1.1"
     xmlns="http://www.w3.org/2000/svg">
    <path fill="#3ABBDB"
          d="M349.375 553.1875l-58.525 0c-15 0-27.1875 12.25-27.1875 27.3125 0 15 12.1875 27.1875 27.1875 27.1875l58.525 0c14.9625 0 27.1875-12.1875 27.1875-27.1875C376.5625 565.4375 364.3375 553.1875 349.375 553.1875M349.375 707.625l-58.525 0c-15 0-27.1875 12.25-27.1875 27.1875 0 15 12.1875 27.1875 27.1875 27.1875l58.525 0c14.9625 0 27.1875-12.1875 27.1875-27.1875C376.5625 719.875 364.3375 707.625 349.375 707.625M481.875 425.9375c0-15-12.15-27.15-27.125-27.15L290.8375 398.7875c-15 0-27.15 12.15-27.15 27.15s12.1875 27.2125 27.15 27.2125L454.75 453.15C469.65 453.15 481.875 440.9375 481.875 425.9375M716 283.5c0-14.9625-12.125-27.1875-27.125-27.1875L290.8375 256.3125c-15 0-27.15 12.2125-27.15 27.1875 0 15 12.1875 27.1875 27.15 27.1875L688.875 310.6875C703.875 310.6875 716 298.5 716 283.5M452.65 897.5 191.375 897.5c-39.9 0-72.3125-33.0625-72.3125-73.6875L119.0625 194.5c0-40.65 32.4-73.7125 72.3125-73.7125l643.75 0c39.875 0 72.3125 33.0625 72.3125 73.7125 0 10-0.375 245.1875 0 257.4625 0.5625 16.3375 11.1875 26.875 27.25 26.875 14.9375 0 27.25-12.1875 27.25-27.1875L961.9375 194.5c0-70.625-56.9375-128.125-126.8125-128.125l-643.75 0c-69.875 0-126.75 57.5-126.75 128.125l0 629.3125c0 70.6875 56.8375 128.125 126.75 128.125l261.275 0c14.9625 0 27.1875-12.1875 27.1875-27.125C479.8375 909.8125 467.625 897.5 452.65 897.5M690.375 416.9625c-151.75 0-275.15 123.4375-275.15 275.3375 0 151.625 123.4 275.0625 275.15 275.0625 151.625 0 275.0625-123.4375 275.0625-275.0625C965.375 540.4 842 416.9625 690.375 416.9625M908.5 692.3125c0 120.25-97.8125 218.1875-218.125 218.1875-120.3375 0-218.275-97.9375-218.275-218.1875 0-120.3125 97.9375-218.4625 218.275-218.4625C810.6875 473.8375 908.5 572 908.5 692.3125M798.3125 548.9375c-5.125-5.1-12-7.9-19.125-7.9-7.375 0-14.1875 2.8125-19.3125 7.9l-70.125 70.3125-68.6875-69.3125c-5.125-5.1875-11.9375-8.0625-19.25-8.0625-7.25 0-14.0625 2.8125-19.125 7.9375-5.1875 5.0875-8.0375 11.9-8.0375 19.2125 0 7.275 2.725 14.2125 7.8375 19.275l59.125 59.625-38.5 0c-15 0-27.1875 12.0625-27.1875 27.125s12.1875 27.25 27.1875 27.25l61.3125 0 0 15.8125-62.625 0c-15 0-27.15 12.1875-27.15 27.25 0 15 12.15 27.125 27.15 27.125l62.625 0 0 61.125c0 15.0625 12.125 27.3125 27.125 27.3125s27.25-12.25 27.25-27.3125L718.8 772.5l58.75 0c15 0 27.1875-12.125 27.1875-27.125 0-15.0625-12.1875-27.25-27.1875-27.25l-58.75 0 0-15.8125 60.125 0c15 0 27.125-12.1875 27.125-27.25s-12.125-27.125-27.125-27.125L738 647.9375 798.3125 587.5C808.8125 576.9375 808.8125 559.625 798.3125 548.9375"/>
</svg>