<?xml version="1.0" standalone="no"?><!DOCTYPE svg PUBLIC "-//W3C//DTD SVG 1.1//EN"
        "http://www.w3.org/Graphics/SVG/1.1/DTD/svg11.dtd">
<svg class="icon" width="30px" height="30.00px" viewBox="0 0 1024 1024" version="1.1"
     xmlns="http://www.w3.org/2000/svg">
    <path fill="#3ABBDB"
          d="M928 320 832 320 832 928C832 981.024 789.024 1024 736 1024L288 1024C234.976 1024 192 981.024 192 928L192 320 96 320C42.976 320 0 277.024 0 224L0 96C0 42.976 42.976 0 96 0L928 0C981.024 0 1024 42.976 1024 96L1024 224C1024 277.024 981.024 320 928 320ZM256 928C256 945.664 270.336 960 288 960L736 960C753.664 960 768 945.664 768 928L768 256C768 238.336 753.664 224 736 224L288 224C270.336 224 256 238.336 256 256L256 928ZM960 96C960 78.336 945.664 64 928 64L96 64C78.336 64 64 78.336 64 96L64 224C64 241.664 78.336 256 96 256L192 256C192 244.704 194.304 234.048 197.888 224L176 224C149.504 224 128 202.496 128 176 128 149.504 149.504 128 176 128L848 128C874.496 128 896 149.504 896 176 896 202.496 874.496 224 848 224L826.112 224C829.696 234.048 832 244.704 832 256L928 256C945.664 256 960 241.664 960 224L960 96ZM416 384 512 576 608 384 704 384 576 576 672 576 672 640 544 640 548.992 670.848 672.224 670.848 672 736 544 736 544 864 480 864 480 736 352 736 352.48 670.848 476.48 670.848 480 640 352 640 352 576 448 576 320 384 416 384Z"/>
</svg>